<svg xmlns="http://www.w3.org/2000/svg" width="71.000000pt" height="71.000000pt" viewBox="0 0 71.000000 71.000000" preserveAspectRatio="xMidYMid meet"><g transform="translate(0.000000,71.000000) scale(0.100000,-0.100000)" fill="#000000" stroke="none"><path d="M20 688 c-19 -21 -20 -34 -20 -264 0 -216 2 -244 18 -262 16 -19 33 -20 262 -26 223 -5 247 -4 267 12 22 17 22 23 27 262 4 239 0 273 -28 292 -6 4 -122 8 -258 8 -242 0 -248 -1 -268 -22z m528 -261 l2 -247 -23 -9 c-36 -14 -467 -14 -483 0 -11 9 -14 62 -14 254 0 133 3 245 7 249 4 3 119 5 257 4 l251 -3 3 -248z"></path><path d="M220 640 c0 -5 5 -10 10 -10 25 0 6 -27 -35 -49 -37 -20 -47 -21 -60 -11 -20 17 -32 5 -15 -15 11 -13 9 -23 -10 -57 -53 -94 -18 -219 77 -275 37 -22 58 -27 109 -26 39 0 72 6 86 16 48 31 95 86 102 119 14 60 16 117 6 123 -5 3 -10 15 -10 26 0 25 -66 91 -109 108 -29 12 -44 41 -21 41 6 0 10 5 10 10 0 6 -30 10 -70 10 -40 0 -70 -4 -70 -10z m90 -20 c0 -5 -9 -10 -20 -10 -11 0 -20 5 -20 10 0 6 9 10 20 10 11 0 20 -4 20 -10z m-30 -55 c0 -8 5 -15 10 -15 6 0 10 7 10 15 0 21 23 19 72 -6 30 -15 37 -24 29 -32 -17 -17 -13 -30 8 -24 38 10 76 -74 42 -93 -13 -7 -14 -11 -3 -21 30 -31 -1 -102 -40 -92 -18 5 -20 3 -15 -16 4 -17 -2 -25 -33 -41 -47 -24 -60 -25 -60 -5 0 8 -4 15 -10 15 -5 0 -10 -7 -10 -15 0 -20 -16 -19 -69 5 -37 17 -42 22 -31 35 16 19 5 32 -13 16 -12 -9 -18 -6 -31 14 -9 14 -19 39 -23 55 -4 23 -2 30 11 30 9 0 16 5 16 10 0 6 -7 10 -16 10 -24 0 -10 56 24 99 45 55 132 92 132 56z"></path><path d="M180 503 c0 -16 81 -141 95 -147 33 -12 71 26 59 59 -4 8 -36 33 -73 55 -68 40 -81 46 -81 33z m122 -90 c11 -14 3 -33 -15 -33 -7 0 -23 19 -35 41 l-24 41 32 -18 c17 -11 36 -24 42 -31z"></path><path d="M480 210 c-13 -8 -12 -10 3 -10 9 0 17 5 17 10 0 12 -1 12 -20 0z"></path></g></svg>